<?xml version="1.0" standalone="no"?>
<!DOCTYPE svg PUBLIC "-//W3C//DTD SVG 20010904//EN"
 "http://www.w3.org/TR/2001/REC-SVG-20010904/DTD/svg10.dtd">
<svg version="1.0" xmlns="http://www.w3.org/2000/svg"
 width="250.000000pt" height="250.000000pt" viewBox="0 0 250.000000 250.000000"
 preserveAspectRatio="xMidYMid meet">

<g transform="translate(0.000000,250.000000) scale(0.100000,-0.100000)" stroke="none">
<path d="M920 1895 l0 -65 -195 0 -195 0 0 -130 0 -130 65 0 65 0 0 -450 0
-450 65 0 65 0 0 -65 0 -65 450 0 450 0 0 65 0 65 65 0 65 0 0 450 0 450 65 0
65 0 0 130 0 130 -195 0 -195 0 0 65 0 65 -320 0 -320 0 0 -65z m770 -710 l0
-515 -450 0 -450 0 0 515 0 515 450 0 450 0 0 -515z"/>
<path d="M920 1120 l0 -320 65 0 65 0 0 320 0 320 -65 0 -65 0 0 -320z"/>
<path d="M1178 1120 l-3 -320 63 0 62 0 0 320 0 320 -60 0 -59 0 -3 -320z"/>
<path d="M1430 1120 l0 -320 65 0 65 0 0 320 0 320 -65 0 -65 0 0 -320z"/>
</g>
</svg>
