<?xml version="1.0" standalone="no"?>
<!DOCTYPE svg PUBLIC "-//W3C//DTD SVG 20010904//EN"
 "http://www.w3.org/TR/2001/REC-SVG-20010904/DTD/svg10.dtd">
<svg version="1.0" xmlns="http://www.w3.org/2000/svg"
 width="200.000000pt" height="200.000000pt" viewBox="0 0 200.000000 200.000000"
 preserveAspectRatio="xMidYMid meet">

<g transform="translate(0.000000,200.000000) scale(0.100000,-0.100000)" stroke="none">
<path d="M190 1560 l0 -200 195 0 195 0 0 200 0 200 -195 0 -195 0 0 -200z"/>
<path d="M1420 1560 l0 -200 195 0 195 0 0 200 0 200 -195 0 -195 0 0 -200z"/>
<path d="M810 1550 l0 -200 195 0 195 0 0 200 0 200 -195 0 -195 0 0 -200z"/>
<path d="M190 960 l0 -200 200 0 200 0 0 200 0 200 -200 0 -200 0 0 -200z"/>
<path d="M810 965 l0 -195 200 0 200 0 0 195 0 195 -200 0 -200 0 0 -195z"/>
<path d="M1410 960 l0 -200 200 0 200 0 0 200 0 200 -200 0 -200 0 0 -200z"/>
<path d="M810 370 l0 -200 200 0 200 0 0 200 0 200 -200 0 -200 0 0 -200z"/>
<path d="M1410 370 l0 -200 200 0 200 0 0 200 0 200 -200 0 -200 0 0 -200z"/>
<path d="M190 365 l0 -195 200 0 200 0 0 195 0 195 -200 0 -200 0 0 -195z"/>
</g>
</svg>
